<svg width="100" height="100" viewBox="0 0 1122 1069" fill="none" xmlns="http://www.w3.org/2000/svg">
  <path fill-rule="evenodd" clip-rule="evenodd" d="M528.7,16.5C560.8,13.8 593.7,15.6 625.5,19.8C692.8,28.7 759.4,51.9 816.2,89.3C894,140.5 954.6,212.1 996.8,294.7C1004.9,310.5 1013.1,326.2 1019.7,342.8C1051.8,423.6 1062.8,514.5 1048.8,600.5C1030.4,713.1 967.1,815.8 880.6,889.1C846.3,918.2 808.2,944.1 766.9,962.4C703.8,990.2 639.4,1004.6 570.5,1007.8C527.7,1009.8 478,1005 436.5,994C419.7,989.5 403.3,984.2 386.8,978.6C331,959.8 279.1,927 234.6,888.9C190.4,851.2 151.8,804.5 124.3,753.3C96.7,702 77.7,647.1 69.4,589.3C45.8,425.8 106.2,258.8 227.6,147.1C268.5,109.4 316.1,79.1 366.7,56.2C417.9,33.2 473,21.1 528.7,16.5ZM558.7,40.5C506.4,40.8 454,50.1 404.6,67.2C223.6,129.8 94.4,303.5 84.2,494.5C81.3,549.9 88.8,607.2 105.4,660.2C124.2,720 156.9,774.5 197.5,822C242.8,875 300.2,915.3 363.2,944.4C424,972.5 492.8,984.8 559.5,984.5C626.3,984.2 691.5,969.4 752.9,943.4C805.5,921.1 853.3,887.4 894.1,847.6C944,798.9 983.2,740.6 1007.7,675.2C1047.4,569.1 1042.2,446.9 998.9,342.6C979.7,296.4 953.6,254 922.7,214.8C892.7,176.7 856,142.7 815.5,116C739.6,65.9 649.6,39.9 558.7,40.5ZM531.8,66.5C566.3,63.7 601.4,66.3 635.6,71.7C682,79 727.9,93.8 769.3,116.2C937.5,207.3 1037.2,402.7 1006.9,592.5C989.2,703.7 921.5,803.8 832.3,870.9C815.7,883.4 798.1,894.2 780.1,904.6C722.7,938 648.3,955.7 582.5,959.8C521.8,963.7 461,953.9 403.4,935.2C351.1,918.2 302.7,889.1 260.9,853.6C220.1,818.9 186.6,776.8 160,730.5C136.7,689.8 121.5,644.8 113.7,598.6C110.2,577.8 107,556.7 106.2,535.5C104.9,501.5 108.4,467.9 114.2,434.5C121.1,395.2 135.6,356.5 153.3,320.8C197.4,231.9 262.3,164.1 349.6,117.1C405.9,86.7 468.5,71.6 531.8,66.5ZM582.4,107.5C570.1,99.9 540.9,96.8 535.3,114.7C530.6,129.6 544,135.1 555.2,139.4C559.1,140.8 566.9,142 566.9,147.5C566.9,151.1 563.5,152.6 560.5,153.2C553.4,154.7 546.8,151.4 540.5,148.6C538.1,152.2 535.7,155.9 533.3,159.5C545.5,168.9 578.2,170.2 582.8,151.4C585.8,138.6 576.1,131.8 565.4,128.2C559.6,126.3 551.9,125.6 551.1,118.5C556,109.8 568.6,115.1 575.5,118.3C577.8,114.7 580.1,111.1 582.4,107.5ZM490.6,106.5C477.3,106.6 462.9,112.9 456.6,125.2C446.2,145.6 460.4,169.4 482.8,171.5C497.3,172.9 513.4,165.8 519.9,152.4C530.9,129.8 515.1,106.4 490.6,106.5ZM627.5,108C623.3,127.8 619.2,147.7 615,167.5C620.1,168.5 625.3,169.5 630.4,170.5C632.2,162.8 633.9,155.2 635.6,147.5C643.5,146.8 654,149.9 661.4,152.5C659.7,160.5 658,168.5 656.3,176.5C661.4,177.7 666.4,178.9 671.5,180.1C676.4,160.3 681.3,140.4 686.1,120.5C680.9,119.2 675.7,118 670.5,116.7C668.4,124.3 666.3,131.9 664.2,139.5C655.7,137.5 647.2,135.5 638.6,133.5C640.3,126.1 641.9,118.7 643.5,111.3C638.2,110.2 632.8,109.1 627.5,108ZM484.6,120.3C509,115.3 514.8,153.2 492.5,157.9C468.4,163 461.1,125.1 484.6,120.3ZM430.9,157.5C433.5,154.6 436.5,152.3 437.8,148.4C441.6,137.3 433.8,126.9 422.5,126.1C411.8,125.4 392.7,133.7 382.9,138.5C390.1,157.6 397.3,176.6 404.5,195.7C409.4,194 414.2,192.2 419.1,190.5C416.7,183.5 414.3,176.5 411.9,169.5C421.3,162.8 432.6,177 439.5,182.9C444.9,180.8 450.3,178.6 455.8,176.5C448.1,169.6 440.6,161.2 430.9,157.5ZM719.7,133.4C697.8,136.4 684.2,159.9 694.2,180.3C701.7,195.4 721.2,202.6 737,198.5C755.3,193.8 768.8,173.2 760.5,154.9C753.8,140 735.6,131.3 719.7,133.4ZM408.5,157.9C406.5,153.3 404.5,148.8 402.5,144.2C407.2,140.9 419.6,136 422.4,144.1C425.4,152.7 414.4,155.7 408.5,157.9ZM723.7,147.4C751.7,142.1 752,184 726.5,185.8C701.8,187.5 702.4,151.3 723.7,147.4ZM365.5,154.2C359,152.1 351.8,153.8 345.5,156C325.8,163.2 309.3,184.9 320.7,205.7C337.4,236.1 374.7,220.6 389.5,197.5C384.9,188.8 380.2,180 375.5,171.3C367.8,175.7 360,180.1 352.3,184.5C354,187.7 355.8,190.9 357.5,194.1C360.8,192.4 364.2,190.8 367.5,189.2C369.1,192 370.7,194.7 372.3,197.5C360.9,211.5 340,213.6 334.4,193.2C329.5,175.1 347.8,166.8 362.5,167.2C363.5,162.9 364.5,158.6 365.5,154.2ZM781.5,158C779.3,161.2 777.1,164.3 774.8,167.5C780.3,171.5 785.7,175.5 791.1,179.5C782.3,192.8 773.5,206.2 764.6,219.5C768.9,222.4 773.2,225.3 777.5,228.3C786.8,215.2 796.2,202.1 805.5,189C810.8,192.5 816.2,196 821.5,199.4C823.8,196.1 826,192.8 828.3,189.5C812.7,179 797.1,168.5 781.5,158ZM840.5,198.1C826.9,213.6 813.3,229.1 799.8,244.5C811,255 822.3,265.6 833.5,276.1C836.3,273.3 839.1,270.4 841.9,267.5C834.7,260.5 827.5,253.5 820.3,246.5C823.4,243.3 826.4,240.1 829.5,236.8C835.8,242.4 842.2,248 848.5,253.6C851.1,250.9 853.7,248.2 856.3,245.5C850.1,239.5 843.9,233.5 837.8,227.5C840.3,224.5 842.9,221.4 845.5,218.4C852.5,224.8 859.5,231.1 866.5,237.4C869.4,234.4 872.4,231.5 875.3,228.5C863.7,218.4 852.1,208.3 840.5,198.1ZM278.5,202.3C273.6,206.7 268.8,211.1 263.9,215.5C271.5,236.3 279,257.1 286.5,277.9C290.5,274.2 294.5,270.4 298.5,266.6C296.9,261.9 295.3,257.2 293.8,252.5C299.7,247.3 305.6,242.1 311.5,236.9C315.8,239.2 320.2,241.5 324.5,243.8C328.8,240.1 333.2,236.3 337.5,232.5C317.8,222.4 298.2,212.3 278.5,202.3ZM545.5,209.2C540.5,220.3 535.5,231.4 530.5,242.5C521.5,243.9 501.3,242.3 494.7,245.5C503.8,253.5 512.9,261.5 522,269.5C518.5,281.6 515,293.6 511.5,305.7C522.5,299.4 533.5,293 544.5,286.7C555.5,292.9 566.5,299.1 577.5,305.3C574.6,293.4 571.8,281.5 568.9,269.5C578.4,261.2 587.9,252.8 597.4,244.5C589.8,240.4 570.4,244.7 560.5,241.7C555.5,230.9 550.5,220.1 545.5,209.2ZM429.5,210.1C424.2,221.2 418.8,232.3 413.5,243.4C401.5,244.1 389.5,244.8 377.5,245.5C386.7,253.8 395.9,262.2 405.1,270.5C401.5,282.3 398,294.2 394.5,306C405.5,299.8 416.5,293.6 427.5,287.4C438.2,293.6 448.8,299.7 459.5,305.9C460.3,301.9 458.5,297.3 457.4,293.2C455.5,285.6 453.5,278 451.5,270.5C461.1,261.6 470.6,252.6 480.2,243.7C468.3,243.7 456.4,243.7 444.5,243.7C439.5,232.5 434.5,221.3 429.5,210.1ZM281.5,219.9C287.6,223.4 293.8,227 299.9,230.5C296.1,233.9 292.3,237.2 288.5,240.6C285.9,234.7 281.2,226.1 281.5,219.9ZM237.5,243.1C226.1,257.5 214.6,272 203.2,286.5C206.9,289.3 210.7,292.1 214.5,295C220.5,286.4 226.5,277.7 232.5,269.1C236.3,278.3 237.1,295.1 238.9,305.5C239.6,309.4 239.7,314.5 241.5,318C242.9,320.8 247.2,322.9 249.5,324.9C261.2,310.4 272.8,296 284.5,281.5C281.1,279 277.8,276.6 274.5,274.1C267.8,282.5 261.2,290.9 254.5,299.4C252.3,295.5 252.3,290.1 251.6,285.7C250.2,276.9 248.9,268.1 247.3,259.3C246.8,256.4 246.9,252.5 245.6,249.8C244.3,247.2 239.8,244.8 237.5,243.1ZM889.5,244.6C873.9,258.2 858.3,271.9 842.6,285.5C852.6,297.2 862.5,308.8 872.5,320.5C875.8,317.8 879.1,315.2 882.4,312.5C876.1,304.8 869.9,297.2 863.7,289.5C876,278.8 888.5,268.2 900.8,257.5C897.1,253.2 893.3,248.9 889.5,244.6ZM612.5,280.1C607.9,284.2 602.6,298.9 599.6,305.1C592.1,320.3 584.7,335.5 577.1,350.6C573.3,358.3 570,368 564.6,374.5C529.7,367.3 487.1,373.6 453.2,383.6C439.4,387.6 421.3,393.6 409.9,402.5C409.9,423.5 409.9,444.5 409.9,465.5C419.7,471 428.6,478.1 437.3,485.2C440.7,488 443.8,491.6 447.5,493.9C460.6,486.2 475,480.5 489.4,475.8C498.4,472.8 509,469.4 518.5,469.5C514.4,475.4 499.8,486.8 493.7,492.1C478,505.7 463.1,520.3 448.4,534.9C406,577.1 367,623.3 333.4,672.9C321.3,690.7 309.4,708.7 299.1,727.6C296.4,732.5 288.7,742.6 292.5,747.9C299,746.9 304.6,738.1 308.8,733.3C320.6,720.1 332.4,706.8 344.8,694.3C377.9,661.1 411.3,628.6 448.8,600.4C459.8,592.2 470.9,584.3 482.5,577C486.6,574.3 490.9,571 495.5,569.2C482.8,594.2 470.2,619.1 457.5,644C445.3,644.9 426.3,638.1 414.5,634.1C410.8,637 410.8,637 410.8,637" stroke="#AD1414" stroke-width="2" fill="none" />
</svg>
